<?xml version="1.0" encoding="UTF-8"?>
<!DOCTYPE svg PUBLIC "-//W3C//DTD SVG 1.1//EN" "http://www.w3.org/Graphics/SVG/1.1/DTD/svg11.dtd">
<svg xmlns="http://www.w3.org/2000/svg" style="background-color: rgb(255, 255, 255);" xmlns:xlink="http://www.w3.org/1999/xlink" version="1.1" width="668px" height="338px" viewBox="-0.5 -0.5 668 338"><defs><clipPath id="mx-clip-274-183-162-26-0"><rect x="274" y="183" width="162" height="26"/></clipPath><clipPath id="mx-clip-274-209-162-26-0"><rect x="274" y="209" width="162" height="26"/></clipPath><clipPath id="mx-clip-144-311-162-26-0"><rect x="144" y="311" width="162" height="26"/></clipPath><clipPath id="mx-clip-409-311-162-28-0"><rect x="409" y="311" width="162" height="28"/></clipPath><clipPath id="mx-clip-274-31-162-62-0"><rect x="274" y="31" width="162" height="62"/></clipPath><clipPath id="mx-clip-274-31-162-62-0"><rect x="274" y="31" width="162" height="62"/></clipPath><clipPath id="mx-clip-501-45-162-44-0"><rect x="501" y="45" width="162" height="44"/></clipPath><clipPath id="mx-clip-4-53-192-52-0"><rect x="4" y="53" width="192" height="52"/></clipPath><clipPath id="mx-clip-9-193-182-32-0"><rect x="9" y="193" width="182" height="32"/></clipPath><clipPath id="mx-clip-500-186-162-26-0"><rect x="500" y="186" width="162" height="26"/></clipPath></defs><g><path d="M 490 274 L 490 252 L 355 252 L 355 238.12" fill="none" stroke="#000000" stroke-miterlimit="10" pointer-events="stroke"/><path d="M 355 231.12 L 358.5 238.12 L 351.5 238.12 Z" fill="none" stroke="#000000" stroke-miterlimit="10" pointer-events="all"/><path d="M 225 274 L 225 252 L 355.17 252 L 355.17 237.73" fill="none" stroke="#000000" stroke-miterlimit="10" pointer-events="stroke"/><path d="M 355.17 230.73 L 358.67 237.73 L 351.67 237.73 Z" fill="none" stroke="#000000" stroke-miterlimit="10" pointer-events="all"/><path d="M 355.09 130 L 355.15 96.43" fill="none" stroke="#000000" stroke-miterlimit="10" pointer-events="stroke"/><path d="M 355.17 89.43 L 358.65 96.43 L 351.65 96.42 Z" fill="none" stroke="#000000" stroke-miterlimit="10" pointer-events="all"/><path d="M 440 155 L 440 180 L 489.63 180" fill="none" stroke="#000000" stroke-miterlimit="10" pointer-events="stroke"/><path d="M 494.88 180 L 487.88 183.5 L 489.63 180 L 487.88 176.5 Z" fill="#000000" stroke="#000000" stroke-miterlimit="10" pointer-events="all"/><path d="M 581.23 153 L 581.74 92.12" fill="none" stroke="#000000" stroke-miterlimit="10" pointer-events="stroke"/><path d="M 581.8 85.12 L 585.24 92.15 L 578.24 92.09 Z" fill="none" stroke="#000000" stroke-miterlimit="10" pointer-events="all"/><path d="M 270 180 L 240 180 L 240 53.58 L 207.57 53.57" fill="none" stroke="#000000" stroke-miterlimit="10" pointer-events="stroke"/><path d="M 202.32 53.56 L 209.32 50.07 L 207.57 53.57 L 209.32 57.07 Z" fill="#000000" stroke="#000000" stroke-miterlimit="10" pointer-events="all"/><path d="M 100 140 L 100 108.12" fill="none" stroke="#000000" stroke-miterlimit="10" pointer-events="stroke"/><path d="M 100 101.12 L 103.5 108.12 L 96.5 108.12 Z" fill="none" stroke="#000000" stroke-miterlimit="10" pointer-events="all"/><path d="M 270 178 L 270 130 L 440 130 L 440 178" fill="#ffffff" stroke="#000000" stroke-miterlimit="10" pointer-events="all"/><path d="M 270 178 L 270 230 L 440 230 L 440 178" fill="none" stroke="#000000" stroke-miterlimit="10" pointer-events="none"/><path d="M 270 178 L 440 178" fill="none" stroke="#000000" stroke-miterlimit="10" pointer-events="none"/><g fill="#000000" font-family="Helvetica" pointer-events="none" text-anchor="middle" font-size="12px"><text x="354.5" y="144.5">Unit</text><text x="354.5" y="158.5">&lt;&lt;abstract&gt;&gt;</text></g><rect x="270" y="178" width="170" height="26" fill="#ffffff" stroke="none" pointer-events="none"/><g fill="#000000" font-family="Helvetica" pointer-events="none" clip-path="url(#mx-clip-274-183-162-26-0)" font-size="12px"><text x="275.5" y="195.5">+ virtual shootAt(Unit*)</text></g><rect x="270" y="204" width="170" height="26" fill="#ffffff" stroke="none" pointer-events="none"/><g fill="#000000" font-family="Helvetica" pointer-events="none" clip-path="url(#mx-clip-274-209-162-26-0)" font-size="12px"><text x="275.5" y="221.5">+ virtual takeHit(Projectile)</text></g><path d="M 140 306 L 140 274 L 310 274 L 310 306" fill="#ffffff" stroke="#000000" stroke-miterlimit="10" pointer-events="none"/><path d="M 140 306 L 140 332 L 310 332 L 310 306" fill="none" stroke="#000000" stroke-miterlimit="10" pointer-events="none"/><path d="M 140 306 L 310 306" fill="none" stroke="#000000" stroke-miterlimit="10" pointer-events="none"/><g fill="#000000" font-family="Helvetica" pointer-events="none" text-anchor="middle" font-size="12px"><text x="224.5" y="294.5">Soldier</text></g><rect x="140" y="306" width="170" height="26" fill="#ffffff" stroke="#000000" pointer-events="none"/><g fill="#000000" font-family="Helvetica" pointer-events="none" clip-path="url(#mx-clip-144-311-162-26-0)" font-size="12px"><text x="145.5" y="323.5">+ Soldier(String, Weapon*)</text></g><path d="M 405 306 L 405 274 L 575 274 L 575 306" fill="#ffffff" stroke="#000000" stroke-miterlimit="10" pointer-events="none"/><path d="M 405 306 L 405 334 L 575 334 L 575 306" fill="none" stroke="#000000" stroke-miterlimit="10" pointer-events="none"/><path d="M 405 306 L 575 306" fill="none" stroke="#000000" stroke-miterlimit="10" pointer-events="none"/><g fill="#000000" font-family="Helvetica" pointer-events="none" text-anchor="middle" font-size="12px"><text x="489.5" y="294.5">UnitSelection</text></g><rect x="405" y="306" width="170" height="28" fill="#ffffff" stroke="#000000" pointer-events="none"/><g fill="#000000" font-family="Helvetica" pointer-events="none" clip-path="url(#mx-clip-409-311-162-28-0)" font-size="12px"><text x="410.5" y="323.5">+ addToSelection(Unit*)</text></g><path d="M 270 26 L 270 0 L 440 0 L 440 26" fill="#ffffff" stroke="#000000" stroke-miterlimit="10" pointer-events="none"/><path d="M 270 26 L 270 88 L 440 88 L 440 26" fill="none" stroke="#000000" stroke-miterlimit="10" pointer-events="none"/><path d="M 270 26 L 440 26" fill="none" stroke="#000000" stroke-miterlimit="10" pointer-events="none"/><g fill="#000000" font-family="Helvetica" pointer-events="none" text-anchor="middle" font-size="12px"><text x="354.5" y="17.5">Subject</text></g><rect x="270" y="26" width="170" height="62" fill="#ffffff" stroke="none" pointer-events="none"/><g fill="#000000" font-family="Helvetica" pointer-events="none" clip-path="url(#mx-clip-274-31-162-62-0)" font-size="12px"><text x="275.5" y="43.5">+ attach(Observer*): void</text><text x="275.5" y="57.5">+ detach(Observer*): void</text><text x="275.5" y="71.5">+ notify(): void</text></g><path d="M 270 26 L 270 0 L 440 0 L 440 26" fill="#ffffff" stroke="#000000" stroke-miterlimit="10" pointer-events="none"/><path d="M 270 26 L 270 88 L 440 88 L 440 26" fill="none" stroke="#000000" stroke-miterlimit="10" pointer-events="none"/><path d="M 270 26 L 440 26" fill="none" stroke="#000000" stroke-miterlimit="10" pointer-events="none"/><g fill="#000000" font-family="Helvetica" pointer-events="none" text-anchor="middle" font-size="12px"><text x="354.5" y="17.5">Subject</text></g><rect x="270" y="26" width="170" height="62" fill="#ffffff" stroke="none" pointer-events="none"/><g fill="#000000" font-family="Helvetica" pointer-events="none" clip-path="url(#mx-clip-274-31-162-62-0)" font-size="12px"><text x="275.5" y="43.5">+ attach(Observer*)</text><text x="275.5" y="57.5">+ detach(Observer*)</text><text x="275.5" y="71.5">+ notify(Event)</text></g><path d="M 497 40 L 497 11 L 667 11 L 667 40" fill="#ffffff" stroke="#000000" stroke-miterlimit="10" pointer-events="none"/><path d="M 497 40 L 497 84 L 667 84 L 667 40" fill="none" stroke="#000000" stroke-miterlimit="10" pointer-events="none"/><path d="M 497 40 L 667 40" fill="none" stroke="#000000" stroke-miterlimit="10" pointer-events="none"/><g fill="#000000" font-family="Helvetica" pointer-events="none" text-anchor="middle" font-size="12px"><text x="581.5" y="23">Observer</text><text x="581.5" y="37">&lt;&lt;abstract&gt;&gt;</text></g><rect x="497" y="40" width="170" height="44" fill="#ffffff" stroke="none" pointer-events="none"/><g fill="#000000" font-family="Helvetica" pointer-events="none" clip-path="url(#mx-clip-501-45-162-44-0)" font-size="12px"><text x="502.5" y="57.5">+ update(Event)</text><text x="502.5" y="71.5">- virtual do_update(Event)</text></g><path d="M 0 48 L 0 0 L 200 0 L 200 48" fill="#ffffff" stroke="#000000" stroke-miterlimit="10" pointer-events="none"/><path d="M 0 48 L 0 100 L 200 100 L 200 48" fill="none" stroke="#000000" stroke-miterlimit="10" pointer-events="none"/><path d="M 0 48 L 200 48" fill="none" stroke="#000000" stroke-miterlimit="10" pointer-events="none"/><g fill="#000000" font-family="Helvetica" pointer-events="none" text-anchor="middle" font-size="12px"><text x="99.5" y="14.5">Weapon</text><text x="99.5" y="28.5">&lt;&lt;abstract&gt;&gt;</text></g><rect x="0" y="48" width="200" height="52" fill="#ffffff" stroke="#000000" pointer-events="none"/><g fill="#000000" font-family="Helvetica" pointer-events="none" clip-path="url(#mx-clip-4-53-192-52-0)" font-size="12px"><text x="5.5" y="65.5">+ Weapon(float accuracy)</text><text x="5.5" y="79.5">+ virtual getProjectile(): projectile</text><text x="5.5" y="93.5">+ shootAt(Unit*)</text></g><path d="M 5 188 L 5 140 L 195 140 L 195 188" fill="#ffffff" stroke="#000000" stroke-miterlimit="10" pointer-events="none"/><path d="M 5 188 L 5 220 L 195 220 L 195 188" fill="none" stroke="#000000" stroke-miterlimit="10" pointer-events="none"/><path d="M 5 188 L 195 188" fill="none" stroke="#000000" stroke-miterlimit="10" pointer-events="none"/><g fill="#000000" font-family="Helvetica" pointer-events="none" text-anchor="middle" font-size="12px"><text x="99.5" y="168.5">Revolver</text></g><rect x="5" y="188" width="190" height="32" fill="#ffffff" stroke="#000000" pointer-events="none"/><g fill="#000000" font-family="Helvetica" pointer-events="none" clip-path="url(#mx-clip-9-193-182-32-0)" font-size="12px"><text x="10.5" y="205.5">+ virtual getProjectile(): projectile</text></g><path d="M 496 181 L 496 153 L 666 153 L 666 181" fill="#ffffff" stroke="#000000" stroke-miterlimit="10" pointer-events="none"/><path d="M 496 181 L 496 207 L 666 207 L 666 181" fill="none" stroke="#000000" stroke-miterlimit="10" pointer-events="none"/><path d="M 496 181 L 666 181" fill="none" stroke="#000000" stroke-miterlimit="10" pointer-events="none"/><g fill="#000000" font-family="Helvetica" pointer-events="none" text-anchor="middle" font-size="12px"><text x="580.5" y="171.5">BattleMonitor</text></g><rect x="496" y="181" width="170" height="26" fill="#ffffff" stroke="none" pointer-events="none"/><g fill="#000000" font-family="Helvetica" pointer-events="none" clip-path="url(#mx-clip-500-186-162-26-0)" font-size="12px"><text x="501.5" y="198.5">- virtual do_update(Event)</text></g></g></svg>